# xmcd CD database file
#
# Track frame offsets:
#	150
#	21608
#	46249
#	68601
#	90962
#	104412
#	130276
#	154056
#	174696
#	200964
#	226117
#	243696
#	263348
#	296402
#	359175
#
# Disc length: 4795 seconds
#
# Revision: 0
# Processed by: cddbd v1.5PL3 Copyright (c) Steve Scherf et al.
# Submitted via: CDex 1.51
#
DISCID=dc12b90f
DTITLE=Takkyu Ishino - TITLE#1
DYEAR=2004
DGENRE=Techno
TTITLE0=Ich Bin...
TTITLE1=TBeisa
TTITLE2=One Track Mind
TTITLE3=Bush in Savanna
TTITLE4=Abuku No Hito
TTITLE5=XTHC
TTITLE6=Spelling Monkey
TTITLE7=Aoi Neon
TTITLE8=Twilights
TTITLE9=Mongol,Kangaroo
TTITLE10=The Rising Suns
TTITLE11=Go Sun
TTITLE12=GoodTimes
TTITLE13=Data1
TTITLE14=Data2
EXTD=YEAR: 2004
EXTT0=
EXTT1=
EXTT2=
EXTT3=
EXTT4=
EXTT5=
EXTT6=
EXTT7=
EXTT8=
EXTT9=
EXTT10=
EXTT11=
EXTT12=
EXTT13=
EXTT14=
PLAYORDER=
